# xmcd
#
# Track frame offsets:
#	150
#	17768
#	35151
#	49345
#	70612
#	90092
#	104913
#	120425
#	138323
#	152764
#	171070
#
# Disc length: 3027 seconds
#
# Revision: 1
# Processed by: cddbd v1.5.2PL0 Copyright (c) Steve Scherf et al.
# Submitted via: audiograbber 1.83.01
#
DISCID=8c0bd10b
DTITLE=Ben Reel - Time To Get Real
DYEAR=2009
DGENRE=Folk-Rock
TTITLE0=Rainy Night
TTITLE1=Summers Always Here
TTITLE2=Feel Alive
TTITLE3=Keep On Drivin
TTITLE4=Time Just Slips Away
TTITLE5=Looking For A Lost horizon
TTITLE6=Who You Are
TTITLE7=Raise Your Glass
TTITLE8=Old and Wise
TTITLE9=Time To  Get Real
TTITLE10=Old Bog Road
EXTD=
EXTT0=
EXTT1=
EXTT2=
EXTT3=
EXTT4=
EXTT5=
EXTT6=
EXTT7=
EXTT8=
EXTT9=
EXTT10=
PLAYORDER=
